<svg xmlns="http://www.w3.org/2000/svg" viewBox="0 0 20.59 20.59">
    <defs>
        <style>
            .cls-1 {
            fill: #666;
            fill-rule: evenodd;
            }
        </style>
    </defs>
    <path class="cls-1"
          d="M1205.72,6499.52a8.829,8.829,0,0,1-9.03-1.32l0.2,0.15c1.69-3.67,6.9-5.49,6.9-5.49s0.04-.01.05-0.01A36.892,36.892,0,0,1,1205.72,6499.52Zm-2.48-8.13c-0.11.04-.23,0.06-0.35,0.1a13.944,13.944,0,0,0-7.14,5.8h0a8.769,8.769,0,0,1-2.25-5.86,2.81,2.81,0,0,1,.01-0.29,32.3,32.3,0,0,0,9.02-1.24C1202.78,6490.39,1203.03,6490.89,1203.24,6491.39Zm-1.43-2.84a33.3,33.3,0,0,1-8.12,1.07,8.794,8.794,0,0,1,4.85-6.14A53.533,53.533,0,0,1,1201.81,6488.55Zm9.16,4.27a8.789,8.789,0,0,1-3.76,5.89,40.766,40.766,0,0,0-1.72-6.28A13.142,13.142,0,0,1,1210.97,6492.82Zm-10.78-9.93a0.037,0.037,0,0,0-.03.02C1200.17,6482.89,1200.17,6482.89,1200.19,6482.89Zm7.9,1.94a9.466,9.466,0,0,1-4.58,3.18,42.425,42.425,0,0,0-3.3-5.12,8.971,8.971,0,0,1,2.08-.25A8.751,8.751,0,0,1,1208.09,6484.83Zm2.99,6.5a20.682,20.682,0,0,0-6.12-.28c-0.07-.15-0.13-0.31-0.19-0.45-0.19-.43-0.39-0.86-0.59-1.28a11.419,11.419,0,0,0,4.9-3.48A8.85,8.85,0,0,1,1211.08,6491.33Zm1.5,0.1a10.29,10.29,0,1,0-10.29,10.28A10.294,10.294,0,0,0,1212.58,6491.43Z"
          transform="translate(-1192 -6481.13)"/>
</svg>
