<svg xmlns="http://www.w3.org/2000/svg" viewBox="0 0 21.13 17.16">
    <defs>
        <style>
            .cls-1 {
            fill: #666;
            fill-rule: evenodd;
            }
        </style>
    </defs>
    <path class="cls-1"
          d="M1300.7,6388.89a8.979,8.979,0,0,1-2.49.67,4.3,4.3,0,0,0,1.9-2.39,8.428,8.428,0,0,1-2.74,1.05,4.33,4.33,0,0,0-7.49,2.96,4.693,4.693,0,0,0,.11.99,12.312,12.312,0,0,1-8.93-4.53,4.335,4.335,0,0,0,1.34,5.79,4.373,4.373,0,0,1-1.95-.55v0.05a4.317,4.317,0,0,0,3.47,4.25,4.748,4.748,0,0,1-1.14.15,5.554,5.554,0,0,1-.82-0.07,4.325,4.325,0,0,0,4.05,3,8.654,8.654,0,0,1-5.38,1.85,8.944,8.944,0,0,1-1.04-.05,12.323,12.323,0,0,0,18.96-10.37,5.148,5.148,0,0,0-.02-0.56A9.232,9.232,0,0,0,1300.7,6388.89Z"
          transform="translate(-1279.59 -6386.84)"/>
</svg>
