<svg xmlns="http://www.w3.org/2000/svg" viewBox="0 0 24 17.16">
    <defs>
        <style>
            .cls-1 {
            fill: #666;
            fill-rule: evenodd;
            }
        </style>
    </defs>
    <path class="cls-1"
          d="M1101.15,6326.43a0.843,0.843,0,0,1-.4.72l-6.86,4.29a0.85,0.85,0,0,1-.87.02,0.859,0.859,0,0,1-.45-0.75v-8.57a0.871,0.871,0,0,1,.45-0.75,0.828,0.828,0,0,1,.87.03l6.86,4.28A0.847,0.847,0,0,1,1101.15,6326.43Zm6.86,0a26.9,26.9,0,0,0-.42-5.82,3.055,3.055,0,0,0-2.6-2.42,119.023,119.023,0,0,0-17.98,0,3.044,3.044,0,0,0-2.58,2.42,26.284,26.284,0,0,0-.43,5.82,26.849,26.849,0,0,0,.42,5.81,3.079,3.079,0,0,0,2.59,2.43,122.62,122.62,0,0,0,17.98,0,3.056,3.056,0,0,0,2.59-2.43A26.239,26.239,0,0,0,1108.01,6326.43Z"
          transform="translate(-1084 -6317.84)"/>
</svg>
