<svg id="prev" xmlns="http://www.w3.org/2000/svg" viewBox="0 0 68 68">
  <defs>
    <style>
      .cls-1 {
        fill: none;
        stroke: #c6cfd2;
        stroke-width: 3px;
      }

      .cls-2 {
        fill: #c6cfd2;
        fill-rule: evenodd;
      }
    </style>
  </defs>
  <circle class="cls-1" cx="34" cy="34" r="32.5"/>
  <path class="cls-2" d="M224.05,2530a1.482,1.482,0,0,1-1.487,1.48H206.425l6.385,6.38a1.486,1.486,0,0,1-2.1,2.1l-8.927-8.91c0-.01,0-0.01-0.008-0.01a1.609,1.609,0,0,1-.313-0.47,1.491,1.491,0,0,1,0-1.14,1.52,1.52,0,0,1,.321-0.48l8.927-8.92a1.49,1.49,0,1,1,2.1,2.11l-6.385,6.37h16.138A1.491,1.491,0,0,1,224.05,2530Z" transform="translate(-179 -2496)"/>
</svg>
