<svg id="next" xmlns="http://www.w3.org/2000/svg" viewBox="0 0 68 68">
  <defs>
    <style>
      .cls-1 {
        fill: none;
        stroke: #c6cfd2;
        stroke-width: 3px;
      }

      .cls-2 {
        fill: #c6cfd2;
        fill-rule: evenodd;
      }
    </style>
  </defs>
  <circle class="cls-1" cx="34" cy="34" r="32.5"/>
  <path class="cls-2" d="M1274.95,2530a1.485,1.485,0,0,0,1.49,1.48h16.13l-6.38,6.38a1.485,1.485,0,0,0,2.1,2.1l8.93-8.91c0-.01,0-0.01.01-0.01a1.6,1.6,0,0,0,.31-0.47,1.5,1.5,0,0,0,0-1.14,1.394,1.394,0,0,0-.32-0.48l-8.93-8.92a1.488,1.488,0,1,0-2.1,2.11l6.38,6.37h-16.13A1.494,1.494,0,0,0,1274.95,2530Z" transform="translate(-1252 -2496)"/>
</svg>
